<svg width="24" height="25" viewBox="0 0 24 25" fill="none" xmlns="http://www.w3.org/2000/svg">
<path d="M18.0001 11.6428V9.07141C18.0001 7.48011 17.368 5.95399 16.2428 4.82877C15.1176 3.70355 13.5914 3.07141 12.0001 3.07141C10.4088 3.07141 8.88272 3.70355 7.7575 4.82877C6.63228 5.95399 6.00014 7.48011 6.00014 9.07141V11.6428C6.00014 14.4714 3.42871 15.1571 3.42871 16.7857C3.42871 18.2428 6.77157 19.3571 12.0001 19.3571C17.2287 19.3571 20.5716 18.2428 20.5716 16.7857C20.5716 15.1571 18.0001 14.4714 18.0001 11.6428Z" stroke="#323743" stroke-width="2.05714" stroke-miterlimit="10" stroke-linecap="square"/>
<path d="M11.9999 21.0714C11.1333 21.0714 10.319 21.0423 9.55273 20.9857C9.7161 21.5068 10.0416 21.9622 10.4817 22.2855C10.9219 22.6088 11.4537 22.7831 11.9999 22.7831C12.546 22.7831 13.0779 22.6088 13.518 22.2855C13.9582 21.9622 14.2837 21.5068 14.447 20.9857C13.6807 21.0423 12.8664 21.0714 11.9999 21.0714Z" fill="#323743"/>
</svg>
