<svg width="16" height="17" viewBox="0 0 16 17" fill="none" xmlns="http://www.w3.org/2000/svg">
<path d="M2 6.5L14 6.5" stroke="#171A1F" stroke-width="0.8" stroke-linecap="round" stroke-linejoin="round"/>
<path d="M12.8 4.09998L3.2 4.09998C2.88174 4.09998 2.57652 4.2264 2.35147 4.45145C2.12643 4.67649 2 4.98172 2 5.29998L2 12.5C2 12.8182 2.12643 13.1235 2.35147 13.3485C2.57652 13.5735 2.88174 13.7 3.2 13.7L12.8 13.7C13.1183 13.7 13.4235 13.5735 13.6485 13.3485C13.8736 13.1235 14 12.8182 14 12.5L14 5.29998C14 4.98172 13.8736 4.67649 13.6485 4.45145C13.4235 4.2264 13.1183 4.09998 12.8 4.09998Z" stroke="#171A1F" stroke-width="0.8" stroke-linecap="round" stroke-linejoin="round"/>
<path d="M5.2002 2.5V4.1" stroke="#171A1F" stroke-width="0.8" stroke-linecap="round" stroke-linejoin="round"/>
<path d="M10.7998 2.5V4.1" stroke="#171A1F" stroke-width="0.8" stroke-linecap="round" stroke-linejoin="round"/>
</svg>
