<svg width="20" height="21" viewBox="0 0 20 21" fill="none" xmlns="http://www.w3.org/2000/svg">
<path d="M2.5 3L5.5 3L5.5 10.5C5.5 11.328 6.172 12 7 12L14.419 12C15.065 12 15.638 11.587 15.842 10.974L17.5 6L5.5 6" stroke="#154D70" stroke-linecap="round" stroke-linejoin="round"/>
<path d="M6 18C6.82843 18 7.5 17.3284 7.5 16.5C7.5 15.6716 6.82843 15 6 15C5.17157 15 4.5 15.6716 4.5 16.5C4.5 17.3284 5.17157 18 6 18Z" stroke="#154D70" stroke-linecap="round" stroke-linejoin="round"/>
<path d="M15 18C15.8284 18 16.5 17.3284 16.5 16.5C16.5 15.6716 15.8284 15 15 15C14.1716 15 13.5 15.6716 13.5 16.5C13.5 17.3284 14.1716 18 15 18Z" stroke="#154D70" stroke-linecap="round" stroke-linejoin="round"/>
</svg>
