<svg width="12" height="13" viewBox="0 0 12 13" fill="none" xmlns="http://www.w3.org/2000/svg">
<path d="M2.14328 6.92858C2.61666 6.92858 3.00042 6.54482 3.00042 6.07144C3.00042 5.59805 2.61666 5.21429 2.14328 5.21429C1.66989 5.21429 1.28613 5.59805 1.28613 6.07144C1.28613 6.54482 1.66989 6.92858 2.14328 6.92858Z" stroke="#9095A1" stroke-width="0.857143" stroke-linecap="round" stroke-linejoin="round"/>
<path d="M9.85714 6.92858C10.3305 6.92858 10.7143 6.54482 10.7143 6.07144C10.7143 5.59805 10.3305 5.21429 9.85714 5.21429C9.38376 5.21429 9 5.59805 9 6.07144C9 6.54482 9.38376 6.92858 9.85714 6.92858Z" stroke="#9095A1" stroke-width="0.857143" stroke-linecap="round" stroke-linejoin="round"/>
<path d="M5.99972 6.92858C6.47311 6.92858 6.85686 6.54482 6.85686 6.07144C6.85686 5.59805 6.47311 5.21429 5.99972 5.21429C5.52633 5.21429 5.14258 5.59805 5.14258 6.07144C5.14258 6.54482 5.52633 6.92858 5.99972 6.92858Z" stroke="#9095A1" stroke-width="0.857143" stroke-linecap="round" stroke-linejoin="round"/>
</svg>
