<svg width="16" height="17" viewBox="0 0 16 17" fill="none" xmlns="http://www.w3.org/2000/svg">
<path d="M11.6004 8.09999L8.00039 12.1L4.40039 8.09999H6.80039L6.80039 3.29999L9.20039 3.29999L9.20039 8.09999H11.6004Z" stroke="#154D70" stroke-width="0.8" stroke-linecap="round" stroke-linejoin="round"/>
<path d="M11.6 6.5L12.8 6.5C13.1183 6.5 13.4235 6.62643 13.6485 6.85147C13.8736 7.07652 14 7.38174 14 7.7L14 12.5C14 12.8183 13.8736 13.1235 13.6485 13.3485C13.4235 13.5736 13.1183 13.7 12.8 13.7L3.2 13.7C2.88174 13.7 2.57652 13.5736 2.35147 13.3485C2.12643 13.1235 2 12.8183 2 12.5L2 7.7C2 7.38174 2.12643 7.07652 2.35147 6.85147C2.57652 6.62643 2.88174 6.5 3.2 6.5L4.4 6.5" stroke="#154D70" stroke-width="0.8" stroke-linecap="round" stroke-linejoin="round"/>
</svg>
