<svg width="20" height="21" viewBox="0 0 20 21" fill="none" xmlns="http://www.w3.org/2000/svg">
<path d="M10 13C11.933 13 13.5 11.433 13.5 9.5C13.5 7.567 11.933 6 10 6C8.067 6 6.5 7.567 6.5 9.5C6.5 11.433 8.067 13 10 13Z" stroke="#6482A4" stroke-linecap="round" stroke-linejoin="round"/>
<path d="M8.4998 12.662C8.48763 13.066 8.34953 13.4561 8.10479 13.7777C7.86005 14.0994 7.52091 14.3365 7.1348 14.456L4.8678 15.544C4.77211 15.5842 4.67982 15.632 4.5918 15.687" stroke="#6482A4" stroke-linecap="round" stroke-linejoin="round"/>
<path d="M15.408 15.688C15.3199 15.633 15.2276 15.5852 15.132 15.545L12.867 14.457C12.035 14.019 11.502 13.524 11.502 12.663" stroke="#6482A4" stroke-linecap="round" stroke-linejoin="round"/>
<path d="M10 18C14.1421 18 17.5 14.6421 17.5 10.5C17.5 6.35786 14.1421 3 10 3C5.85786 3 2.5 6.35786 2.5 10.5C2.5 14.6421 5.85786 18 10 18Z" stroke="#6482A4" stroke-linecap="round" stroke-linejoin="round"/>
</svg>
