<svg width="80" height="81" viewBox="0 0 80 81" fill="none" xmlns="http://www.w3.org/2000/svg">
<path d="M40 64.0897L40 40.5V44.6026" stroke="#154D70" stroke-width="2.46154" stroke-miterlimit="10" stroke-linecap="square"/>
<path d="M28.7178 51.7821L39.9998 40.5L51.2819 51.7821" stroke="#154D70" stroke-width="2.46154" stroke-miterlimit="10" stroke-linecap="square"/>
<path d="M48.2048 64.0056C52.8416 63.6188 57.2738 61.9257 60.9876 59.1227C64.7014 56.3196 67.5447 52.5213 69.1879 48.1682C70.831 43.8151 71.2067 39.0854 70.2714 34.5274C69.3361 29.9695 67.1281 25.77 63.9034 22.4157C60.6787 19.0615 56.5694 16.6899 52.0518 15.5759C47.5342 14.462 42.7934 14.6512 38.379 16.1217C33.9645 17.5922 30.0573 20.2838 27.1102 23.8844C24.1631 27.485 22.2969 31.8471 21.7278 36.4651C18.1931 36.8159 14.9283 38.5117 12.6088 41.2019C10.2892 43.8921 9.09229 47.3709 9.26551 50.9188C9.43873 54.4667 10.9689 57.8123 13.5394 60.2637C16.11 62.7152 19.5245 64.0849 23.0766 64.0897H31.7945" stroke="#154D70" stroke-width="2.46154" stroke-miterlimit="10" stroke-linecap="square"/>
</svg>
