<svg width="25" height="24" viewBox="0 0 25 24" fill="none" xmlns="http://www.w3.org/2000/svg">
<path d="M12.415 7.98999C13.515 7.98999 14.415 7.08999 14.415 5.98999C14.415 4.88999 13.515 3.98999 12.415 3.98999C11.315 3.98999 10.415 4.88999 10.415 5.98999C10.415 7.08999 11.315 7.98999 12.415 7.98999ZM12.415 9.98999C11.315 9.98999 10.415 10.89 10.415 11.99C10.415 13.09 11.315 13.99 12.415 13.99C13.515 13.99 14.415 13.09 14.415 11.99C14.415 10.89 13.515 9.98999 12.415 9.98999ZM12.415 15.99C11.315 15.99 10.415 16.89 10.415 17.99C10.415 19.09 11.315 19.99 12.415 19.99C13.515 19.99 14.415 19.09 14.415 17.99C14.415 16.89 13.515 15.99 12.415 15.99Z" fill="#9095A1"/>
</svg>
