<svg width="43" height="33" viewBox="0 0 43 33" fill="none" xmlns="http://www.w3.org/2000/svg">
<path fill-rule="evenodd" clip-rule="evenodd" d="M8.24008 -0.0600586C3.73343 -0.0600586 0.0800781 3.64702 0.0800781 8.21994V24.7799C0.0800781 29.3528 3.73343 33.0599 8.24008 33.0599H34.7601C39.2667 33.0599 42.9201 29.3528 42.9201 24.7799V22.0199H29.3201C26.3156 22.0199 23.8801 19.5486 23.8801 16.4999C23.8801 13.4513 26.3156 10.9799 29.3201 10.9799H42.9201V8.21994C42.9201 3.64702 39.2667 -0.0600586 34.7601 -0.0600586H8.24008Z" fill="#154D70"/>
<path d="M28.6702 19.26C30.1724 19.26 31.3902 18.0243 31.3902 16.5C31.3902 14.9757 30.1724 13.74 28.6702 13.74C27.168 13.74 25.9502 14.9757 25.9502 16.5C25.9502 18.0243 27.168 19.26 28.6702 19.26Z" fill="#154D70"/>
</svg>
