<svg width="256" height="233" viewBox="0 0 256 233" fill="none" xmlns="http://www.w3.org/2000/svg">
<g clip-path="url(#clip0_4_472)">
<path d="M182.313 2.96564H56.9854V172.367H182.313V2.96564Z" fill="#F5F7F9" stroke="black" stroke-width="0.605227" stroke-miterlimit="10"/>
<path d="M56.9902 13.807H182.33" stroke="black" stroke-width="0.605227" stroke-miterlimit="10"/>
<path d="M62.3001 9.86649C63.228 9.86649 63.9801 9.10117 63.9801 8.15709C63.9801 7.21302 63.228 6.44769 62.3001 6.44769C61.3723 6.44769 60.6201 7.21302 60.6201 8.15709C60.6201 9.10117 61.3723 9.86649 62.3001 9.86649Z" fill="black"/>
<path d="M68.3402 9.86649C69.268 9.86649 70.0202 9.10117 70.0202 8.15709C70.0202 7.21302 69.268 6.44769 68.3402 6.44769C67.4123 6.44769 66.6602 7.21302 66.6602 8.15709C66.6602 9.10117 67.4123 9.86649 68.3402 9.86649Z" fill="black"/>
<path d="M74.3802 9.86649C75.308 9.86649 76.0602 9.10117 76.0602 8.15709C76.0602 7.21302 75.308 6.44769 74.3802 6.44769C73.4524 6.44769 72.7002 7.21302 72.7002 8.15709C72.7002 9.10117 73.4524 9.86649 74.3802 9.86649Z" fill="black"/>
<path d="M164.612 72.6053H135.008V102.727H164.612V72.6053Z" fill="#EDAE49" stroke="black" stroke-width="0.605227" stroke-miterlimit="10"/>
<path d="M164.606 72.6115L135.014 102.721" stroke="black" stroke-width="0.605227" stroke-miterlimit="10"/>
<path d="M135.014 72.6115L164.606 102.721" stroke="black" stroke-width="0.605227" stroke-miterlimit="10"/>
<path d="M96.8716 103.852H67.2676V133.974H96.8716V103.852Z" stroke="black" stroke-width="0.605227" stroke-miterlimit="10"/>
<path d="M96.8654 103.852L67.2734 133.974" stroke="black" stroke-width="0.605227" stroke-miterlimit="10"/>
<path d="M67.2734 103.852L96.8654 133.974" stroke="black" stroke-width="0.605227" stroke-miterlimit="10"/>
<path d="M151.909 38.5716H72.9495C71.7735 38.5716 70.8135 37.5948 70.8135 36.3983V32.3079C70.8135 31.1113 71.7735 30.1345 72.9495 30.1345H151.909C153.085 30.1345 154.045 31.1113 154.045 32.3079V36.3983C154.045 37.607 153.085 38.5716 151.909 38.5716Z" fill="#B3CCE0"/>
<path d="M90.084 77.2324H121.716" stroke="black" stroke-width="0.605227" stroke-miterlimit="10"/>
<path d="M90.084 83.9812H121.716" stroke="black" stroke-width="0.605227" stroke-miterlimit="10"/>
<path d="M90.084 90.7078H121.716" stroke="black" stroke-width="0.605227" stroke-miterlimit="10"/>
<path d="M90.084 97.4566H121.716" stroke="black" stroke-width="0.605227" stroke-miterlimit="10"/>
<path d="M163.622 45.2949H110.438V62.8163H163.622V45.2949Z" stroke="black" stroke-width="0.605227" stroke-miterlimit="10"/>
<path d="M169.404 113.492H102.936V134.213H169.404V113.492Z" fill="#0E344C"/>
<path d="M220.391 201.88L225.011 205.946L205.691 219.939C205.691 219.939 201.167 218.926 202.907 215.836C204.647 212.747 210.779 206.789 210.779 206.789L220.391 201.88Z" fill="black"/>
<path d="M212.38 206.557C211.72 206.557 211.216 206.496 210.988 206.472L208.996 203.236L217.672 197.791L220.084 201.881C218.536 205.947 214.6 206.557 212.38 206.557Z" fill="#F5F7F9"/>
<path d="M217.56 198.222L219.732 201.922C218.22 205.695 214.488 206.269 212.364 206.269C211.836 206.269 211.404 206.232 211.152 206.208L209.412 203.351L217.56 198.222ZM217.764 197.38L208.584 203.155L210.804 206.769C210.804 206.769 211.428 206.879 212.376 206.879C214.668 206.879 218.844 206.244 220.416 201.861L217.764 197.38Z" fill="black"/>
<path d="M182.319 122.315L191.895 166.222L207.855 205.599L220.659 199.677L212.319 165.135L210.591 130.312L182.319 122.315Z" fill="#B3CCE0"/>
<path d="M181.059 210.194L181.479 216.397L158.115 212.295C158.115 212.295 155.643 208.314 159.015 207.398C162.387 206.483 170.871 206.715 170.871 206.715L181.059 210.194Z" fill="black"/>
<path d="M178.184 210.586C174.488 210.586 171.812 207.277 171.332 206.642L172.196 202.93L182.108 205.36L180.956 209.988C180.032 210.379 179.108 210.586 178.184 210.586Z" fill="#F5F7F9"/>
<path d="M172.414 203.3L181.738 205.583L180.694 209.759C179.866 210.113 179.026 210.284 178.186 210.284C174.814 210.284 172.294 207.378 171.658 206.572L172.414 203.3ZM171.97 202.555L171.01 206.707C171.01 206.707 173.914 210.895 178.186 210.895C179.134 210.895 180.142 210.687 181.198 210.199L182.47 205.132L171.97 202.555Z" fill="black"/>
<path d="M207.555 133.954L208.875 128.386L182.091 122.318L169.023 203.466L186.843 207.971L200.391 158.276C207.519 144.931 207.555 133.954 207.555 133.954Z" fill="#B3CCE0" stroke="#231F20" stroke-width="0.605227" stroke-miterlimit="10" stroke-linecap="round"/>
<path d="M151.801 83.4306L156.145 80.9397C157.201 80.3414 158.509 80.4635 159.433 81.245L177.157 96.3121L169.789 102.295L161.353 92.466C160.249 92.5881 158.557 90.1949 158.557 90.1949L158.101 90.6222C157.177 91.013 156.337 89.9629 155.713 88.9739C155.089 87.9849 155.761 87.2767 155.761 87.2767C154.561 86.5319 155.521 85.4086 155.521 85.4086C154.837 85.0911 154.993 84.4196 154.993 84.4196L153.193 85.2498C152.713 85.4696 152.161 85.5185 151.657 85.3353C151.465 85.2621 151.297 85.1766 151.189 85.0423C151.069 84.8835 151.045 84.6882 151.069 84.4806C151.129 84.0411 151.405 83.6503 151.801 83.4306Z" fill="#F5F7F9" stroke="black" stroke-width="0.605227" stroke-miterlimit="10" stroke-linecap="round"/>
<path d="M154.83 84.4157L156.15 83.5244" stroke="black" stroke-width="0.605227" stroke-miterlimit="10"/>
<path d="M155.368 85.4098L157.072 84.5062" stroke="black" stroke-width="0.605227" stroke-miterlimit="10"/>
<path d="M155.614 87.2894C155.614 87.2894 156.91 86.4835 157.426 86.6422" stroke="black" stroke-width="0.605227" stroke-miterlimit="10" stroke-linecap="round"/>
<path d="M200.115 59.5357C204.879 62.3195 199.647 72.1364 199.647 72.1364L200.919 80.1828L192.231 78.9251V74.8104C192.231 74.8104 191.499 74.7615 188.199 74.7249C184.887 74.6883 187.227 68.4734 187.227 68.4734C187.227 68.4734 186.363 67.6675 186.303 66.7151C186.255 65.775 188.139 65.8604 188.451 62.7225C188.559 61.6724 188.907 60.8177 189.327 60.1584C190.095 58.9374 191.451 58.2292 192.867 58.2536C194.919 58.2902 198.387 58.5222 200.115 59.5357Z" fill="#F5F7F9" stroke="black" stroke-width="0.605227" stroke-miterlimit="10" stroke-linecap="round"/>
<path d="M200.135 59.5301C198.395 58.5167 194.927 58.2847 192.887 58.2481C192.659 58.2481 192.431 58.2603 192.215 58.2847C192.215 58.2847 191.291 56.6974 190.727 56.6608C190.163 56.6242 190.307 57.6132 190.307 57.6132C190.307 57.6132 189.467 56.8561 188.579 57.1003C187.691 57.3445 189.731 59.6278 189.731 59.6278L192.251 60.8488L193.307 63.8769L195.131 64.1455L195.803 65.7939C195.803 65.7939 197.603 64.3042 198.467 65.6107C199.331 66.9172 197.111 68.2847 196.283 68.5411L199.679 72.1186C199.679 72.1309 204.911 62.314 200.135 59.5301Z" fill="black"/>
<path d="M189.68 64.3675C189.713 64.1652 189.632 63.9813 189.5 63.9568C189.367 63.9323 189.233 64.0764 189.2 64.2787C189.167 64.481 189.247 64.6649 189.38 64.6894C189.512 64.7139 189.647 64.5698 189.68 64.3675Z" fill="black"/>
<path d="M189.43 62.8229C189.43 62.8229 190.126 62.8962 190.51 63.2259" stroke="black" stroke-width="0.968364" stroke-miterlimit="10" stroke-linecap="round"/>
<path d="M186.662 69.9475C186.662 69.9475 188.186 71.0952 189.518 70.1062" stroke="black" stroke-width="0.605227" stroke-miterlimit="10" stroke-linecap="round"/>
<path d="M178.931 95.0479L173.759 92.7768L165.899 99.7365L178.067 110.408L175.583 131.116L215.219 132.581L206.543 86.9771C206.051 82.496 202.643 78.9185 198.263 78.2836L191.387 77.2946L190.019 79.3703C189.059 79.2359 188.111 79.6877 187.607 80.5302L178.931 95.0479Z" fill="#74A2C6"/>
<path d="M194.042 101.022L185.426 112.487C184.682 113.488 183.302 113.745 182.258 113.086L177.998 110.412" stroke="black" stroke-width="0.605227" stroke-miterlimit="10" stroke-linecap="round"/>
<path d="M157.91 89.0511L158.45 90.2111" stroke="black" stroke-width="0.363136" stroke-miterlimit="10"/>
<path d="M55.5675 44.1573C55.5675 44.1573 41.8155 42.6799 30.2235 55.598C18.6315 68.5162 55.5675 90.9338 55.5675 90.9338V44.1573Z" fill="#EDAE49"/>
<path d="M34.9855 37.3504L33.5935 33.1868C33.5935 33.1868 31.5415 28.95 36.3535 26.8132C41.1775 24.6765 43.6735 27.9243 43.6735 27.9243L48.7495 38.3883C49.4815 39.8047 49.1215 41.5507 47.8975 42.5275L46.7215 43.4677L48.2335 48.0098V48.022C49.0615 50.5128 47.7655 53.2112 45.3415 54.0537C42.9175 54.884 40.2775 53.5409 39.4495 51.0501V51.0379H39.4375L36.4135 41.9414C36.4135 41.9414 34.2655 42.4176 33.2695 39.9634C32.2855 37.5092 34.9855 37.3504 34.9855 37.3504Z" fill="#F5F7F9" stroke="black" stroke-width="0.605227" stroke-miterlimit="10" stroke-linecap="round"/>
<path d="M43.0811 32.2752C43.0811 32.2752 45.1931 34.6195 44.7611 35.2422C44.3291 35.8649 43.9451 36.2312 43.9451 36.2312" stroke="black" stroke-width="0.605227" stroke-miterlimit="10" stroke-linecap="round"/>
<path d="M41.1116 34.1866C41.3634 34.0934 41.4995 33.829 41.4156 33.5961C41.3316 33.3631 41.0594 33.2498 40.8076 33.343C40.5557 33.4362 40.4196 33.7006 40.5036 33.9335C40.5875 34.1665 40.8597 34.2798 41.1116 34.1866Z" fill="black"/>
<path d="M44.8713 32.1331C45.1232 32.04 45.2593 31.7756 45.1753 31.5426C45.0914 31.3097 44.8192 31.1964 44.5673 31.2895C44.3155 31.3827 44.1794 31.6471 44.2633 31.8801C44.3473 32.113 44.6195 32.2263 44.8713 32.1331Z" fill="black"/>
<path d="M39.9056 30.714L37.9736 32.2647" stroke="black" stroke-width="0.968364" stroke-miterlimit="10" stroke-linecap="round"/>
<path d="M44.4558 29.196L43.4238 29.3426" stroke="black" stroke-width="0.968364" stroke-miterlimit="10" stroke-linecap="round"/>
<path d="M45.3974 38.014C45.3974 38.014 43.6214 39.1495 42.4814 38.1849" stroke="black" stroke-width="0.605227" stroke-miterlimit="10" stroke-linecap="round"/>
<path d="M47.0355 43.2503L44.5635 44.9475" stroke="black" stroke-width="0.363136" stroke-miterlimit="10" stroke-linecap="round"/>
<path d="M40.6799 35.9382C41.8596 35.9382 42.8159 34.9651 42.8159 33.7648C42.8159 32.5645 41.8596 31.5914 40.6799 31.5914C39.5003 31.5914 38.5439 32.5645 38.5439 33.7648C38.5439 34.9651 39.5003 35.9382 40.6799 35.9382Z" stroke="#154D70" stroke-width="0.363136" stroke-miterlimit="10"/>
<path d="M45.8001 33.6183C46.9797 33.6183 47.9361 32.6453 47.9361 31.4449C47.9361 30.2446 46.9797 29.2715 45.8001 29.2715C44.6204 29.2715 43.6641 30.2446 43.6641 31.4449C43.6641 32.6453 44.6204 33.6183 45.8001 33.6183Z" stroke="#154D70" stroke-width="0.363136" stroke-miterlimit="10"/>
<path d="M36.9177 29.5291C36.9177 29.5291 39.1257 33.5706 34.9257 37.3313C34.9257 37.3313 29.7657 31.5437 33.8217 27.1726C37.8777 22.8014 42.7737 26.269 43.6137 27.8929C43.6257 27.8929 41.3697 29.5169 36.9177 29.5291Z" fill="black"/>
<path d="M33.5618 27.1614C33.5618 27.1614 31.4378 22.7903 28.7258 24.17C26.0138 25.5497 24.6698 25.9893 21.9578 23.9014C19.2458 21.8135 16.3538 19.8477 16.3538 19.8477L15.1898 25.0491L17.3138 27.3812L14.0258 27.4789L13.2578 29.6767C13.2578 29.6767 16.1618 31.5204 19.6418 31.203C23.1218 30.8855 23.3138 30.5192 24.8618 32.2774C26.4098 34.0357 29.0978 30.1529 32.0018 31.203L33.5618 27.1614Z" fill="black"/>
<path d="M38.8922 35.0713L34.9082 37.3423" stroke="#154D70" stroke-width="0.363136" stroke-miterlimit="10"/>
<path d="M46.3761 63.2834C46.3761 63.2834 57.1281 67.4837 66.4041 63.2834V81.9037C66.4041 81.9037 56.7681 83.955 41.9961 80.9635" fill="#EDAE49"/>
<path d="M46.3761 63.2834C46.3761 63.2834 57.1281 67.4837 66.4041 63.2834V81.9037C66.4041 81.9037 56.7681 83.955 41.9961 80.9635" stroke="black" stroke-width="0.605227" stroke-miterlimit="10" stroke-linecap="round"/>
<path d="M94.1084 42.6024L90.1964 48.8539C89.5484 49.8918 89.8484 51.2715 90.8684 51.9309C91.8884 52.5902 93.2444 52.2849 93.8924 51.2471L97.8044 44.9956L94.1084 42.6024Z" fill="#F5F7F9" stroke="black" stroke-width="0.605227" stroke-miterlimit="10" stroke-linecap="round"/>
<path d="M95.6816 36.6297L99.7376 30.1462L100.866 30.8788L99.9896 33.4185L101.586 31.3428L104.874 33.4673L103.614 35.9093L105.066 33.6016L106.698 34.6517L102.63 41.1352L95.6816 36.6297Z" fill="#F5F7F9" stroke="black" stroke-width="0.605227" stroke-miterlimit="10"/>
<path d="M102.577 41.1498L95.6169 36.6443L93.5289 39.9898C92.9889 40.8445 93.2409 41.9801 94.0809 42.5295L97.9929 45.0692C98.8329 45.6186 99.9489 45.3622 100.489 44.5075L102.577 41.1498Z" fill="#F5F7F9" stroke="black" stroke-width="0.605227" stroke-miterlimit="10" stroke-linecap="round"/>
<path d="M103.635 35.9094L104.883 33.4796L101.595 31.355L99.9867 33.4307L100.863 30.891L99.7347 30.1584L97.3827 33.9069C97.3827 33.9069 96.9267 36.0437 97.8147 35.6896C98.7027 35.3355 100.647 35.2378 100.563 36.178C100.491 37.1181 101.799 38.4368 102.975 38.1072C103.383 37.9973 103.875 38.1682 104.331 38.4368L106.695 34.6639L105.063 33.6017L103.635 35.9094Z" fill="black"/>
<path d="M92.7802 48.0839C93.0922 47.6077 93.7162 47.4734 94.1842 47.7909C94.6522 48.1083 94.7842 48.7432 94.4722 49.2194L94.1602 49.6346C94.4842 49.2561 95.0482 49.1706 95.4802 49.4514C95.9482 49.7689 96.0802 50.4038 95.7682 50.88L95.4802 51.2463C95.8162 50.9044 96.3442 50.8434 96.7522 51.112C97.2202 51.4294 97.3522 52.0644 97.0402 52.5405L92.1202 59.0851C92.1202 59.0851 84.4882 75.6174 66.9082 80.1718V66.0326C66.9082 66.0326 79.2202 64.2011 85.2202 54.0546L86.9002 49.9154C86.9242 49.3537 87.1882 48.8409 87.6082 48.4868L87.8962 48.2426C88.4962 47.742 89.3362 47.6565 90.0322 48.0228L90.2722 48.1572L91.1482 47.0094C91.1482 47.0094 91.8202 46.5821 92.2882 46.9117C92.7562 47.2414 92.9482 47.5467 92.7802 48.0839L91.5442 49.7445Z" fill="#F5F7F9"/>
<path d="M92.7802 48.0839C93.0922 47.6077 93.7162 47.4734 94.1842 47.7909C94.6522 48.1083 94.7842 48.7432 94.4722 49.2194L94.1602 49.6346C94.4842 49.2561 95.0482 49.1706 95.4802 49.4514C95.9482 49.7689 96.0802 50.4038 95.7682 50.88L95.4802 51.2463C95.8162 50.9044 96.3442 50.8434 96.7522 51.112C97.2202 51.4294 97.3522 52.0644 97.0402 52.5405L92.1202 59.0851C92.1202 59.0851 84.4882 75.6174 66.9082 80.1718V66.0326C66.9082 66.0326 79.2202 64.2011 85.2202 54.0546L86.9002 49.9154C86.9242 49.3537 87.1882 48.8409 87.6082 48.4868L87.8962 48.2426C88.4962 47.742 89.3362 47.6565 90.0322 48.0228L90.2722 48.1572L91.1482 47.0094C91.1482 47.0094 91.8202 46.5821 92.2882 46.9117C92.7562 47.2414 92.9482 47.5467 92.7802 48.0839ZM92.7802 48.0839L91.5442 49.7445" stroke="black" stroke-width="0.605227" stroke-miterlimit="10" stroke-linecap="round"/>
<path d="M95.5877 51.3972L94.4717 52.7403" stroke="black" stroke-width="0.605227" stroke-miterlimit="10"/>
<path d="M94.2957 49.7116L93.2637 51.1402" stroke="black" stroke-width="0.605227" stroke-miterlimit="10"/>
<path d="M55.8193 44.1295V65.0696" stroke="black" stroke-width="0.363136" stroke-miterlimit="10"/>
<path d="M55.8193 82.5953V90.9836" stroke="black" stroke-width="0.363136" stroke-miterlimit="10"/>
<path d="M90.099 196.601C90.099 196.601 83.2831 191.851 74.9911 196.601C68.7031 200.203 78.1471 219.275 83.0551 228.237C84.6391 231.118 87.6271 232.901 90.8671 232.901H136.287C138.519 232.901 140.631 231.912 142.083 230.19C144.651 227.138 148.107 221.961 147.039 217.126C145.395 209.629 132.591 200.08 132.591 200.08L90.099 196.601Z" fill="black"/>
<path d="M118.488 149.627L115.572 161.129C115.572 161.129 114.012 164.438 109.86 163.278C105.708 162.118 106.896 158.846 106.896 158.846C106.896 158.821 107.4 156.843 107.412 156.831L107.928 154.768L106.896 153.62C105.78 152.387 105.348 150.653 105.768 149.017L107.484 142.228C107.496 142.179 107.508 142.13 107.52 142.069C108.384 138.65 111.828 136.599 115.188 137.527C118.488 138.443 120.42 141.947 119.568 145.317L119.328 146.269L118.488 149.627Z" fill="#F5F7F9" stroke="black" stroke-width="0.605227" stroke-miterlimit="10" stroke-linecap="round"/>
<path d="M108.723 139.68C108.723 139.68 106.995 142.757 109.035 143.66C111.087 144.564 110.487 145.492 109.935 146.285C109.935 146.285 111.771 146.041 111.999 146.823C112.227 147.604 111.663 148.984 110.331 149.204C110.331 149.204 108.711 151.096 109.695 152.293C110.667 153.489 115.959 155.528 117.555 153.343L120.807 146.701C121.131 146.041 121.311 145.321 121.323 144.576C121.371 142.451 121.203 137.995 119.079 135.712C116.223 132.647 112.275 131.975 112.851 133.355C112.851 133.355 109.179 130.144 108.207 131.487C107.223 132.818 109.371 134.832 109.371 134.832C109.371 134.832 106.275 133.221 105.627 134.649C104.979 136.078 105.555 138.215 108.723 139.68Z" fill="black"/>
<path d="M104.481 158.651H123.477C126.045 158.651 128.325 160.336 129.129 162.815L139.065 193.645C139.785 195.868 139.581 198.297 138.513 200.373L133.725 209.689H90.0452V177.052L74.9492 135.77L85.6652 129.457L97.7012 154.354C98.9732 156.979 101.601 158.651 104.481 158.651Z" fill="#0C3C61"/>
<path d="M129.521 171.207L134.177 209.742" stroke="black" stroke-width="0.605227" stroke-miterlimit="10"/>
<path d="M76.8679 134.21L69.9319 121.17C69.7039 120.694 69.8959 120.108 70.3639 119.876C70.8319 119.644 71.4079 119.839 71.6359 120.315L71.2999 119.766C71.0719 119.29 71.2639 118.704 71.7319 118.472C72.1999 118.24 72.7759 118.435 73.0039 118.911L72.6919 118.374C72.4639 117.898 72.6559 117.312 73.1239 117.08C73.5919 116.848 74.1679 117.043 74.3959 117.519L72.5599 113.221C72.3319 112.745 72.5239 112.159 72.9919 111.927C73.4599 111.695 74.0359 111.89 74.2639 112.367L76.7119 117.898L76.9519 117.8C77.6359 117.544 78.4039 117.715 78.9079 118.252L79.1479 118.508C79.5079 118.887 79.6879 119.4 79.6519 119.925L83.6239 130.218L76.8679 134.21Z" fill="#F5F7F9" stroke="black" stroke-width="0.363136" stroke-miterlimit="10" stroke-linecap="round"/>
<path d="M71.5654 120.31L72.4534 121.69" stroke="black" stroke-width="0.363136" stroke-miterlimit="10"/>
<path d="M72.958 118.908L73.762 120.361" stroke="black" stroke-width="0.363136" stroke-miterlimit="10"/>
<path d="M74.3701 117.509L75.3301 119.206" stroke="black" stroke-width="0.363136" stroke-miterlimit="10"/>
</g>
<defs>
<clipPath id="clip0_4_472">
<rect width="256" height="232" fill="white" transform="translate(0 0.5)"/>
</clipPath>
</defs>
</svg>
