<svg width="48" height="49" viewBox="0 0 48 49" fill="none" xmlns="http://www.w3.org/2000/svg">
<g clip-path="url(#clip0_4_902)">
<path d="M41.1004 13.1V41.6C41.1004 44.754 38.5544 47.3 35.4004 47.3H12.6004C9.44639 47.3 6.90039 44.754 6.90039 41.6V7.40001C6.90039 4.24601 9.44639 1.70001 12.6004 1.70001H29.7004L41.1004 13.1Z" fill="white"/>
<path d="M35.4013 47.756H12.6013C9.18131 47.756 6.44531 44.982 6.44531 41.6V7.40002C6.44531 3.98002 9.18131 1.24402 12.6013 1.24402H29.7013C29.8153 1.24402 29.9293 1.28202 30.0433 1.39602L41.4433 12.796C41.5193 12.872 41.5953 13.024 41.5953 13.138V41.638C41.5573 45.02 38.8213 47.756 35.4013 47.756ZM12.6013 2.15602C9.71331 2.15602 7.35731 4.51202 7.35731 7.40002V41.6C7.35731 44.488 9.71331 46.844 12.6013 46.844H35.4013C38.2893 46.844 40.6453 44.488 40.6453 41.6V13.29L29.5113 2.15602H12.6013Z" fill="#565D6D"/>
<path d="M35.4005 41.886H12.6005C12.3345 41.886 12.1445 41.658 12.1445 41.43C12.1445 41.202 12.3725 40.974 12.6005 40.974H35.4005C35.6665 40.974 35.8565 41.202 35.8565 41.43C35.8565 41.658 35.6665 41.886 35.4005 41.886ZM35.4005 37.326H12.6005C12.3345 37.326 12.1445 37.098 12.1445 36.87C12.1445 36.642 12.3725 36.414 12.6005 36.414H35.4005C35.6665 36.414 35.8565 36.642 35.8565 36.87C35.8565 37.098 35.6665 37.326 35.4005 37.326ZM35.4005 32.766H12.6005C12.3345 32.766 12.1445 32.538 12.1445 32.31C12.1445 32.082 12.3725 31.854 12.6005 31.854H35.4005C35.6665 31.854 35.8565 32.082 35.8565 32.31C35.8565 32.538 35.6665 32.766 35.4005 32.766Z" fill="#565D6D"/>
<path opacity="0.2" d="M40.96 14.83V13.31L29.56 1.91003H28.04V7.61003C28.04 11.6 31.27 14.83 35.26 14.83H40.96Z" fill="#565D6D"/>
<path d="M29.5508 7.62004C29.5508 10.774 32.0968 13.32 35.2508 13.32H40.9508L29.5508 1.92004V7.62004Z" fill="#B3CCE0"/>
<path d="M41.0576 13.678H35.3576C31.9376 13.678 29.2016 10.904 29.2016 7.522V1.822C29.2016 1.632 29.3156 1.442 29.5056 1.366C29.6956 1.29 29.8856 1.328 30.0376 1.48L41.4376 12.88C41.5896 13.032 41.6276 13.222 41.5516 13.412C41.4376 13.564 41.2476 13.678 41.0576 13.678ZM30.1136 2.962V7.522C30.1136 10.41 32.4696 12.766 35.3576 12.766H39.9176L30.1136 2.962ZM14.9136 26.75C14.9136 27.206 14.6096 27.51 14.1536 27.51C13.6976 27.51 13.4316 27.206 13.4316 26.75C13.4316 26.332 13.7356 26.028 14.1536 26.028C14.5716 26.028 14.9136 26.332 14.9136 26.75ZM17.4976 29.334C17.4976 29.6 17.3076 29.752 17.0416 29.752C16.7376 29.752 16.5476 29.6 16.5476 29.334V21.848C16.5476 21.582 16.7376 21.43 17.0416 21.43C17.3076 21.43 17.4976 21.544 17.4976 21.81V22C17.4976 22.152 17.4976 22.418 17.4596 22.608C17.8396 21.848 18.4096 21.354 19.4736 21.354C21.0696 21.354 21.9816 22.532 21.9816 24.432C21.9816 26.332 21.0316 27.624 19.3976 27.624C18.4096 27.624 17.8016 27.13 17.4216 26.37C17.4596 26.56 17.4596 26.788 17.4596 26.978V29.334H17.4976ZM17.4976 24.47C17.4976 25.8 18.1816 26.75 19.3216 26.75C20.4236 26.75 21.0316 25.838 21.0316 24.432C21.0316 23.026 20.4236 22.152 19.3596 22.152C18.1436 22.19 17.4976 23.14 17.4976 24.47ZM27.4916 19.454C27.4916 19.15 27.6816 19.036 27.9476 19.036C28.2516 19.036 28.4416 19.188 28.4416 19.454V27.092C28.4416 27.396 28.2516 27.51 27.9476 27.51C27.6436 27.51 27.4916 27.32 27.4916 27.13V26.902C27.4916 26.788 27.5296 26.56 27.5296 26.408C27.1496 27.168 26.5416 27.624 25.5536 27.624C23.9956 27.624 23.0076 26.408 23.0076 24.47C23.0076 22.608 23.9956 21.392 25.5916 21.392C26.5796 21.392 27.1876 21.848 27.5676 22.608C27.5296 22.38 27.5296 22.038 27.5296 21.81V19.454H27.4916ZM23.9576 24.432C23.9576 25.838 24.5656 26.75 25.6676 26.75C26.8076 26.75 27.4916 25.762 27.4916 24.432C27.4916 23.14 26.8456 22.152 25.6676 22.152C24.6036 22.19 23.9576 23.064 23.9576 24.432ZM30.6836 20.708C30.6836 19.34 31.5196 18.96 32.3556 18.96C32.6976 18.96 32.9636 18.998 33.2676 19.074C33.4576 19.15 33.5716 19.302 33.5716 19.454C33.5716 19.53 33.5716 19.606 33.5336 19.644C33.4576 19.834 33.3056 19.948 33.1156 19.948C33.0776 19.948 33.0016 19.948 32.9256 19.91C32.7356 19.834 32.5456 19.796 32.3176 19.796C31.9376 19.796 31.6336 20.024 31.6336 20.784V21.43H32.9256C33.1916 21.43 33.3056 21.62 33.3056 21.886C33.3056 22.114 33.1536 22.304 32.9256 22.304H31.6336V27.054C31.6336 27.358 31.4436 27.472 31.1396 27.472C30.8356 27.472 30.6456 27.32 30.6456 27.054V22.342H29.7336C29.4676 22.342 29.3536 22.19 29.3536 21.924C29.3536 21.658 29.4676 21.468 29.7336 21.468H30.6456V20.708H30.6836Z" fill="#565D6D"/>
</g>
<defs>
<clipPath id="clip0_4_902">
<rect width="48" height="48" fill="white" transform="translate(0 0.5)"/>
</clipPath>
</defs>
</svg>
