<svg width="48" height="49" viewBox="0 0 48 49" fill="none" xmlns="http://www.w3.org/2000/svg">
<g clip-path="url(#clip0_4_865)">
<path d="M41.1004 13.1V41.6C41.1004 44.754 38.5544 47.3 35.4004 47.3H12.6004C9.44639 47.3 6.90039 44.754 6.90039 41.6V7.40001C6.90039 4.24601 9.44639 1.70001 12.6004 1.70001H29.7004L41.1004 13.1Z" fill="white"/>
<path d="M35.4005 41.886H12.6005C12.3345 41.886 12.1445 41.658 12.1445 41.43C12.1445 41.202 12.3725 40.974 12.6005 40.974H35.4005C35.6665 40.974 35.8565 41.202 35.8565 41.43C35.8565 41.658 35.6665 41.886 35.4005 41.886ZM35.4005 37.326H12.6005C12.3345 37.326 12.1445 37.098 12.1445 36.87C12.1445 36.642 12.3725 36.414 12.6005 36.414H35.4005C35.6665 36.414 35.8565 36.642 35.8565 36.87C35.8565 37.098 35.6665 37.326 35.4005 37.326ZM35.4005 32.766H12.6005C12.3345 32.766 12.1445 32.538 12.1445 32.31C12.1445 32.082 12.3725 31.854 12.6005 31.854H35.4005C35.6665 31.854 35.8565 32.082 35.8565 32.31C35.8565 32.538 35.6665 32.766 35.4005 32.766Z" fill="#565D6D"/>
<path d="M35.4013 47.756H12.6013C9.18131 47.756 6.44531 44.982 6.44531 41.6V7.40002C6.44531 3.98002 9.18131 1.24402 12.6013 1.24402H29.7013C29.8153 1.24402 29.9293 1.28202 30.0433 1.39602L41.4433 12.796C41.5193 12.872 41.5953 13.024 41.5953 13.138V41.638C41.5573 45.02 38.8213 47.756 35.4013 47.756ZM12.6013 2.15602C9.71331 2.15602 7.35731 4.51202 7.35731 7.40002V41.6C7.35731 44.488 9.71331 46.844 12.6013 46.844H35.4013C38.2893 46.844 40.6453 44.488 40.6453 41.6V13.29L29.5113 2.15602H12.6013Z" fill="#565D6D"/>
<path opacity="0.2" d="M40.96 14.83V13.31L29.56 1.91003H28.04V7.61003C28.04 11.6 31.27 14.83 35.26 14.83H40.96Z" fill="#565D6D"/>
<path d="M29.5508 7.62004C29.5508 10.774 32.0968 13.32 35.2508 13.32H40.9508L29.5508 1.92004V7.62004Z" fill="#6482A4"/>
<path d="M41.0545 13.671H35.3545C31.9345 13.671 29.1985 10.897 29.1985 7.51504V1.81504C29.1985 1.62504 29.3125 1.43504 29.5025 1.35904C29.6925 1.28304 29.8825 1.32104 30.0345 1.47304L41.4345 12.873C41.5865 13.025 41.6245 13.215 41.5485 13.405C41.4345 13.557 41.2445 13.671 41.0545 13.671ZM30.1105 2.95504V7.51504C30.1105 10.403 32.4665 12.759 35.3545 12.759H39.9145L30.1105 2.95504ZM14.7965 26.743C14.7965 27.199 14.4925 27.503 14.0365 27.503C13.6185 27.503 13.3145 27.199 13.3145 26.743C13.3145 26.325 13.6185 26.021 14.0365 26.021C14.4545 26.021 14.7965 26.325 14.7965 26.743ZM17.3805 29.327C17.3805 29.593 17.1905 29.745 16.9245 29.745C16.6205 29.745 16.4305 29.593 16.4305 29.327V21.841C16.4305 21.575 16.6205 21.423 16.9245 21.423C17.1905 21.423 17.3805 21.537 17.3805 21.803V21.993C17.3805 22.145 17.3805 22.411 17.3425 22.601C17.7225 21.841 18.2925 21.347 19.3565 21.347C20.9525 21.347 21.8645 22.525 21.8645 24.425C21.8645 26.325 20.9145 27.617 19.2805 27.617C18.2925 27.617 17.6845 27.123 17.3045 26.363C17.3425 26.553 17.3425 26.781 17.3425 26.971V29.327H17.3805ZM17.3805 24.463C17.3805 25.793 18.0645 26.743 19.2045 26.743C20.3065 26.743 20.9145 25.831 20.9145 24.425C20.9145 23.019 20.3065 22.145 19.2425 22.145C18.0265 22.183 17.3805 23.133 17.3805 24.463ZM28.0965 27.085C28.0965 27.389 27.8685 27.503 27.6025 27.503C27.2985 27.503 27.1085 27.351 27.1085 27.085V23.665C27.1085 22.753 26.7285 22.221 25.9305 22.221C25.3605 22.221 24.8665 22.487 24.4865 22.981C24.2205 23.361 24.1065 23.665 24.1065 24.083V27.085C24.1065 27.389 23.9165 27.503 23.6125 27.503C23.3085 27.503 23.1185 27.351 23.1185 27.085V21.841C23.1185 21.575 23.3085 21.423 23.6125 21.423C23.8785 21.423 24.0685 21.575 24.0685 21.841V22.145C24.0685 22.297 24.0305 22.373 24.0305 22.601C24.4105 21.841 25.0565 21.347 26.0825 21.347C27.3745 21.347 28.0585 22.107 28.0585 23.437V27.085H28.0965ZM33.7585 21.803C33.7585 21.575 33.9105 21.423 34.2145 21.423C34.5185 21.423 34.6705 21.575 34.6705 21.841V26.819C34.6705 29.289 33.3785 29.859 31.9345 29.859C30.7565 29.859 30.0345 29.479 29.6165 28.947C29.5785 28.871 29.5405 28.795 29.5405 28.719C29.5405 28.567 29.6165 28.453 29.7305 28.339C29.8065 28.263 29.9205 28.225 30.0345 28.225C30.1485 28.225 30.2625 28.263 30.3385 28.377C30.7185 28.833 31.2125 29.061 31.8585 29.061C33.1885 29.061 33.6825 28.377 33.6825 26.781C33.6825 26.667 33.7205 26.401 33.7205 26.249C33.3785 26.933 32.7705 27.389 31.8205 27.389C30.3005 27.389 29.2365 26.211 29.2365 24.425C29.2365 22.563 30.1865 21.347 31.8585 21.347C32.8465 21.347 33.4545 21.879 33.7585 22.563C33.7585 22.449 33.7205 22.259 33.7205 22.107V21.803H33.7585ZM30.3005 24.425C30.3005 25.793 31.0225 26.629 32.0105 26.629C33.1125 26.629 33.7585 25.679 33.7585 24.349C33.7585 23.057 33.1125 22.145 32.0105 22.145C30.9085 22.145 30.3005 23.057 30.3005 24.425Z" fill="#565D6D"/>
</g>
<defs>
<clipPath id="clip0_4_865">
<rect width="48" height="48" fill="white" transform="translate(0 0.5)"/>
</clipPath>
</defs>
</svg>
