<svg width="48" height="49" viewBox="0 0 48 49" fill="none" xmlns="http://www.w3.org/2000/svg">
<g clip-path="url(#clip0_4_923)">
<path d="M41.1004 13.1V41.6C41.1004 44.754 38.5544 47.3 35.4004 47.3H12.6004C9.44639 47.3 6.90039 44.754 6.90039 41.6V7.40001C6.90039 4.24601 9.44639 1.70001 12.6004 1.70001H29.7004L41.1004 13.1Z" fill="white"/>
<path d="M35.4013 47.756H12.6013C9.18131 47.756 6.44531 44.982 6.44531 41.6V7.40002C6.44531 3.98002 9.18131 1.24402 12.6013 1.24402H29.7013C29.8153 1.24402 29.9293 1.28202 30.0433 1.39602L41.4433 12.796C41.5193 12.872 41.5953 13.024 41.5953 13.138V41.638C41.5573 45.02 38.8213 47.756 35.4013 47.756ZM12.6013 2.15602C9.71331 2.15602 7.35731 4.51202 7.35731 7.40002V41.6C7.35731 44.488 9.71331 46.844 12.6013 46.844H35.4013C38.2893 46.844 40.6453 44.488 40.6453 41.6V13.29L29.5113 2.15602H12.6013Z" fill="#565D6D"/>
<path d="M35.4005 41.886H12.6005C12.3345 41.886 12.1445 41.658 12.1445 41.43C12.1445 41.202 12.3725 40.974 12.6005 40.974H35.4005C35.6665 40.974 35.8565 41.202 35.8565 41.43C35.8565 41.658 35.6665 41.886 35.4005 41.886ZM35.4005 37.326H12.6005C12.3345 37.326 12.1445 37.098 12.1445 36.87C12.1445 36.642 12.3725 36.414 12.6005 36.414H35.4005C35.6665 36.414 35.8565 36.642 35.8565 36.87C35.8565 37.098 35.6665 37.326 35.4005 37.326ZM35.4005 32.766H12.6005C12.3345 32.766 12.1445 32.538 12.1445 32.31C12.1445 32.082 12.3725 31.854 12.6005 31.854H35.4005C35.6665 31.854 35.8565 32.082 35.8565 32.31C35.8565 32.538 35.6665 32.766 35.4005 32.766Z" fill="#565D6D"/>
<path opacity="0.2" d="M40.96 14.83V13.31L29.56 1.91003H28.04V7.61003C28.04 11.6 31.27 14.83 35.26 14.83H40.96Z" fill="#565D6D"/>
<path d="M29.5508 7.62004C29.5508 10.774 32.0968 13.32 35.2508 13.32H40.9508L29.5508 1.92004V7.62004Z" fill="#154D70"/>
<path d="M41.0362 13.69H35.3362C31.9162 13.69 29.1802 10.916 29.1802 7.53403V1.83403C29.1802 1.64403 29.2942 1.45403 29.4842 1.37803C29.6742 1.30203 29.8642 1.34003 30.0162 1.49203L41.4162 12.892C41.5682 13.044 41.6062 13.234 41.5302 13.424C41.4162 13.576 41.2262 13.69 41.0362 13.69ZM30.0922 2.97403V7.53403C30.0922 10.422 32.4482 12.778 35.3362 12.778H39.8962L30.0922 2.97403ZM17.5142 26.762C17.5142 27.218 17.2102 27.522 16.7542 27.522C16.2982 27.522 16.0322 27.218 16.0322 26.762C16.0322 26.344 16.3362 26.04 16.7542 26.04C17.1722 26.04 17.5142 26.344 17.5142 26.762ZM19.7942 20.188C19.7942 19.922 19.9842 19.77 20.2882 19.77C20.5542 19.77 20.7822 19.922 20.7822 20.188V21.48H22.1502C22.4162 21.48 22.5302 21.67 22.5302 21.898C22.5302 22.126 22.3782 22.316 22.1502 22.316H20.7822V25.926C20.7822 26.458 21.0102 26.686 21.3902 26.686C21.6562 26.686 21.8462 26.61 22.0362 26.496C22.1122 26.458 22.1502 26.458 22.2262 26.458C22.3782 26.458 22.5302 26.572 22.5682 26.724C22.6062 26.8 22.6062 26.876 22.6062 26.952C22.6062 27.104 22.5302 27.256 22.3782 27.332C22.0742 27.484 21.7702 27.56 21.3142 27.56C20.4402 27.56 19.7942 27.104 19.7942 26.002V22.354H18.9582C18.6922 22.354 18.5782 22.164 18.5782 21.936C18.5782 21.708 18.6922 21.518 18.9582 21.518H19.7942V20.188ZM23.2522 22.164C23.1762 22.088 23.1382 21.974 23.1382 21.898C23.1382 21.746 23.2142 21.594 23.3662 21.518C23.4802 21.442 23.5562 21.404 23.6702 21.404C23.7842 21.404 23.9362 21.442 24.0122 21.594L25.5322 23.684L26.9762 21.594C27.0902 21.48 27.2042 21.404 27.3182 21.404C27.4322 21.404 27.5082 21.442 27.6222 21.518C27.7362 21.594 27.8502 21.746 27.8502 21.898C27.8502 21.974 27.8122 22.088 27.7362 22.164L26.1022 24.368L27.8502 26.724C27.9262 26.8 27.9642 26.914 27.9642 26.99C27.9642 27.142 27.8882 27.294 27.7742 27.37C27.6602 27.446 27.5842 27.484 27.4702 27.484C27.3562 27.484 27.2042 27.446 27.1282 27.294L25.5322 25.014L23.9362 27.294C23.8222 27.408 23.7082 27.484 23.5942 27.484C23.4802 27.484 23.3662 27.446 23.2522 27.37C23.1382 27.256 23.0622 27.142 23.0622 26.99C23.0622 26.914 23.1002 26.8 23.1762 26.724L24.9622 24.33L23.2522 22.164ZM29.7502 20.188C29.7502 19.922 29.9402 19.77 30.2442 19.77C30.5102 19.77 30.7382 19.922 30.7382 20.188V21.48H32.1062C32.3722 21.48 32.4862 21.67 32.4862 21.898C32.4862 22.126 32.3342 22.316 32.1062 22.316H30.7382V25.926C30.7382 26.458 30.9662 26.686 31.3462 26.686C31.6122 26.686 31.8022 26.61 31.9922 26.496C32.0682 26.458 32.1062 26.458 32.1822 26.458C32.3342 26.458 32.4862 26.572 32.5242 26.724C32.5622 26.8 32.5622 26.876 32.5622 26.952C32.5622 27.104 32.4862 27.256 32.3342 27.332C32.0302 27.484 31.7262 27.56 31.2702 27.56C30.3962 27.56 29.7502 27.104 29.7502 26.002V22.354H28.9142C28.6482 22.354 28.5342 22.164 28.5342 21.936C28.5342 21.708 28.6482 21.518 28.9142 21.518H29.7502V20.188Z" fill="#565D6D"/>
</g>
<defs>
<clipPath id="clip0_4_923">
<rect width="48" height="48" fill="white" transform="translate(0 0.5)"/>
</clipPath>
</defs>
</svg>
