<svg width="24" height="25" viewBox="0 0 24 25" fill="none" xmlns="http://www.w3.org/2000/svg">
<path d="M6.85015 18.2745L8.74272 19.7C9.17472 20.024 9.42843 20.5314 9.42843 21.0714V21.9285H2.57129V21.0714C2.57129 20.5314 2.825 20.024 3.257 19.7L5.14957 18.2745" stroke="#565D6D" stroke-width="2.05714" stroke-miterlimit="10"/>
<path d="M6.00042 18.4999C5.05328 18.4999 4.28613 17.7328 4.28613 16.7857L4.28613 15.9285C4.28613 14.9814 5.05328 14.2142 6.00042 14.2142C6.94756 14.2142 7.7147 14.9814 7.7147 15.9285V16.7857C7.7147 17.7328 6.94756 18.4999 6.00042 18.4999Z" stroke="#565D6D" stroke-width="2.05714" stroke-miterlimit="10" stroke-linecap="square"/>
<path d="M12.8501 7.13171L14.7427 8.55714C15.1747 8.88114 15.4284 9.38857 15.4284 9.92857V10.7857L8.57129 10.7857L8.57129 9.92857C8.57129 9.38857 8.825 8.88114 9.257 8.55714L11.1496 7.13171" stroke="#565D6D" stroke-width="2.05714" stroke-miterlimit="10"/>
<path d="M12.0004 7.35713C11.0533 7.35713 10.2861 6.58998 10.2861 5.64284V4.7857C10.2861 3.83855 11.0533 3.07141 12.0004 3.07141C12.9476 3.07141 13.7147 3.83855 13.7147 4.7857V5.64284C13.7147 6.58998 12.9476 7.35713 12.0004 7.35713Z" stroke="#565D6D" stroke-width="2.05714" stroke-miterlimit="10" stroke-linecap="square"/>
<path d="M18.8501 18.2745L20.7427 19.7C21.1747 20.024 21.4284 20.5314 21.4284 21.0714V21.9285H14.5713L14.5713 21.0714C14.5713 20.5314 14.825 20.024 15.257 19.7L17.1496 18.2745" stroke="#565D6D" stroke-width="2.05714" stroke-miterlimit="10"/>
<path d="M18.0004 18.4999C17.0533 18.4999 16.2861 17.7328 16.2861 16.7857V15.9285C16.2861 14.9814 17.0533 14.2142 18.0004 14.2142C18.9476 14.2142 19.7147 14.9814 19.7147 15.9285V16.7857C19.7147 17.7328 18.9476 18.4999 18.0004 18.4999Z" stroke="#565D6D" stroke-width="2.05714" stroke-miterlimit="10" stroke-linecap="square"/>
</svg>
